<svg width="315" height="308" viewBox="0 0 315 308" fill="none" xmlns="http://www.w3.org/2000/svg">
<path d="M152.112 58.2665C123.188 29.9004 96.0092 12.7666 76.6652 11.8588C65.2816 11.3242 58.4046 16.1532 54.6405 20.2994C40.312 36.0776 46.0512 69.1704 62.7593 106.938C29.5223 119.499 6.43112 138.124 7.6593 161.503C8.88758 184.885 33.8032 200.988 68.1712 209.998C55.5123 249.308 53.2719 282.818 69.1748 297.01C73.3525 300.737 80.6998 304.821 91.9626 303.096C111.105 300.167 136.341 280.28 162.132 249.039C191.056 277.403 218.236 294.537 237.58 295.447C248.964 295.981 255.841 291.152 259.605 287.006C265.883 280.094 268.31 269.867 267.653 257.374C266.811 241.346 260.875 221.593 251.486 200.366C284.721 187.804 307.814 169.179 306.586 145.798C305.358 122.419 280.442 106.315 246.074 97.3035C253.189 75.2111 257.021 54.9451 256.179 38.9171C255.523 26.4279 252.036 16.5055 245.07 10.2914C240.893 6.56445 233.545 2.48068 222.283 4.20495C203.138 7.13885 177.903 27.0261 152.112 58.2665ZM70.1154 34.3549C70.5606 33.8625 71.7462 32.5588 75.6834 32.7435C88.5718 33.3497 111.917 47.7727 139.16 74.8726C135.217 80.1984 131.285 85.7604 127.379 91.5512C111.973 93.5245 96.8764 96.5053 82.8577 100.407C67.5728 66.3357 63.6993 41.4206 70.1154 34.3549ZM181.429 123.955C188.414 133.268 194.808 142.433 200.639 151.366C195.776 160.862 190.378 170.646 184.406 180.638C181.202 186.003 177.987 191.155 174.777 196.122C169.796 196.597 164.681 196.983 159.413 197.26C154.146 197.536 149.018 197.688 144.015 197.738C140.302 193.134 136.565 188.348 132.817 183.349C125.831 174.035 119.438 164.872 113.607 155.938C118.469 146.441 123.868 136.657 129.839 126.665C133.043 121.3 136.258 116.149 139.468 111.182C144.449 110.707 149.564 110.321 154.832 110.044C160.099 109.767 165.227 109.615 170.23 109.566C173.943 114.169 177.678 118.956 181.429 123.955ZM197.394 110.41C204.736 110.958 211.676 111.756 218.208 112.757C216.064 118.17 213.699 123.763 211.132 129.496C206.929 123.379 202.594 117.333 198.152 111.413C197.9 111.072 197.646 110.745 197.394 110.41ZM213.366 172.018C216.519 177.448 219.457 182.762 222.157 187.921C215.765 189.601 208.947 191.121 201.703 192.436C201.919 192.075 202.139 191.722 202.354 191.361C206.149 185.009 209.827 178.543 213.366 172.018ZM116.851 196.895C109.51 196.349 102.574 195.55 96.0415 194.551C98.1874 189.131 100.538 183.543 103.109 177.804C107.314 183.922 111.649 189.973 116.091 195.895C116.343 196.231 116.599 196.559 116.851 196.895ZM100.88 135.288C97.726 129.855 94.7859 124.541 92.0863 119.38C98.4797 117.7 105.298 116.18 112.542 114.866C112.326 115.227 112.106 115.579 111.891 115.94C108.096 122.295 104.418 128.764 100.88 135.288ZM28.5373 160.407C27.9882 149.955 43.4559 136.294 71.7786 125.754C77.118 136.13 83.1242 146.688 89.6408 157.197C84.2612 168.33 79.3942 179.46 75.1714 190.338C45.9002 182.823 29.0863 170.858 28.5373 160.407ZM88.8001 282.429C84.906 283.026 83.5882 281.851 83.094 281.41C80.5812 279.17 79.1094 274.585 78.7652 268.034C78.1337 256.012 81.3155 237.355 88.8433 214.387C103.194 216.798 118.52 218.181 134.049 218.529C138.541 223.879 143.034 228.998 147.514 233.881C123.259 263.687 101.554 280.476 88.8001 282.429ZM244.128 272.951C243.683 273.443 242.497 274.747 238.56 274.562C225.672 273.956 202.326 259.533 175.083 232.433C179.026 227.107 182.958 221.545 186.864 215.754C202.27 213.781 217.367 210.8 231.383 206.898C246.671 240.97 250.546 265.885 244.128 272.951ZM285.708 146.897C286.257 157.348 270.787 171.009 242.465 181.55C237.125 171.174 231.121 160.615 224.607 150.109C229.986 138.975 234.849 127.846 239.074 116.968C268.343 124.48 285.159 136.445 285.708 146.897ZM231.149 25.8953C238.27 32.2478 237.027 57.4338 225.396 92.9172C211.047 90.5055 195.721 89.1229 180.194 88.7745C175.703 83.4249 171.209 78.3056 166.73 73.4222C190.984 43.6149 212.687 26.8275 225.443 24.874C229.339 24.2779 230.655 25.4523 231.149 25.8953Z" fill="#0A7D86"/>
<path d="M146.684 154.2C146.828 156.956 148.076 159.591 150.12 161.431C152.164 163.27 154.915 164.236 157.671 164.091C160.427 163.946 163.041 162.699 164.902 160.654C166.741 158.611 167.706 155.859 167.562 153.103C167.417 150.347 166.17 147.733 164.125 145.873C162.061 144.034 159.33 143.068 156.574 143.213C153.818 143.358 151.183 144.606 149.344 146.649C147.505 148.714 146.539 151.444 146.684 154.2Z" fill="#0A7D86"/>
</svg>
