<svg width="292" height="210" viewBox="0 0 292 210" fill="none" xmlns="http://www.w3.org/2000/svg">
<path d="M241.516 149.669C271.36 122.273 289.896 96.031 291.817 76.7613C292.948 65.4214 288.487 58.3006 284.544 54.3241C269.539 39.1876 236.191 43.1829 197.599 57.8867C186.799 24.0365 169.41 0 145.999 0C122.585 0 105.197 24.0365 94.3969 57.8846C55.8051 43.1808 22.4588 39.1856 7.45194 54.322C3.51101 58.2985 -0.952586 65.4214 0.17847 76.7592C2.0998 96.029 20.6357 122.273 50.4802 149.667C20.6378 177.064 2.10189 203.308 0.17847 222.578C-0.952586 233.917 3.50892 241.038 7.45194 245.015C14.025 251.646 24.1104 254.607 36.6211 254.607C52.6712 254.607 72.7082 249.715 94.399 241.452C105.199 275.3 122.588 299.339 146.001 299.339C169.412 299.339 186.801 275.302 197.603 241.454C219.292 249.719 239.329 254.609 255.379 254.609C267.885 254.609 277.977 251.646 284.548 245.017C288.489 241.04 292.953 233.917 291.822 222.58C289.896 203.308 271.36 177.064 241.516 149.669ZM269.696 69.0404C270.164 69.5108 271.404 70.7631 271.013 74.6852C269.732 87.5241 254.104 110.08 225.612 135.865C220.5 131.648 215.152 127.429 209.574 123.224C208.412 107.737 206.227 92.5041 203.066 78.3C237.893 64.8235 262.977 62.2624 269.696 69.0404ZM174.38 175.5C164.713 181.987 155.225 187.891 145.999 193.245C136.771 187.891 127.283 181.987 117.618 175.5C112.429 172.019 107.453 168.538 102.661 165.071C102.448 160.073 102.331 154.944 102.331 149.669C102.331 144.395 102.448 139.266 102.661 134.267C107.453 130.801 112.429 127.32 117.618 123.839C127.285 117.352 136.771 111.448 145.999 106.093C155.227 111.448 164.715 117.352 174.38 123.839C179.569 127.32 184.545 130.801 189.337 134.267C189.55 139.266 189.667 144.395 189.667 149.669C189.667 154.944 189.55 160.073 189.337 165.071C184.545 168.538 179.569 172.017 174.38 175.5ZM187.068 192.154C186.136 199.457 184.975 206.346 183.633 212.816C178.34 210.391 172.879 207.736 167.288 204.872C173.617 200.996 179.883 196.984 186.027 192.859C186.38 192.624 186.721 192.388 187.068 192.154ZM124.708 204.872C119.119 207.736 113.658 210.391 108.365 212.816C107.023 206.346 105.862 199.457 104.93 192.154C105.279 192.388 105.62 192.627 105.969 192.861C112.113 196.984 118.377 200.996 124.708 204.872ZM104.928 107.185C105.858 99.8821 107.02 92.9975 108.361 86.5268C113.66 88.9541 119.117 91.5946 124.714 94.463C118.383 98.3412 112.113 102.353 105.967 106.478C105.618 106.712 105.277 106.951 104.928 107.185ZM167.288 94.4672C172.879 91.603 178.34 88.9457 183.635 86.5206C184.978 92.9933 186.138 99.8821 187.07 107.185C186.721 106.951 186.38 106.712 186.031 106.478C179.885 102.355 173.617 98.3433 167.288 94.4672ZM145.999 20.9068C156.465 20.9068 169.295 37.0698 178.335 65.9065C167.694 70.6941 156.835 76.1383 145.999 82.0946C135.163 76.1383 124.304 70.6941 113.662 65.9065C122.703 37.0698 135.533 20.9068 145.999 20.9068ZM20.9828 74.6852C20.5918 70.7652 21.8337 69.5108 22.2999 69.0404C24.6687 66.6487 29.3246 65.4194 35.8851 65.4194C47.9233 65.4194 66.3881 69.5756 88.9298 78.2979C85.7687 92.502 83.5839 107.735 82.4215 123.224C76.8436 127.429 71.4956 131.648 66.3839 135.865C37.8922 110.08 22.2644 87.5241 20.9828 74.6852ZM22.2999 230.296C21.8316 229.826 20.5918 228.574 20.9828 224.652C22.2644 211.813 37.8922 189.256 66.3839 163.472C71.4956 167.689 76.8436 171.908 82.4215 176.112C83.5839 191.6 85.7687 206.833 88.9298 221.035C54.1033 234.513 29.0194 237.076 22.2999 230.296ZM145.999 278.432C135.533 278.432 122.703 262.267 113.662 233.43C124.304 228.643 135.163 223.201 145.997 217.246C156.833 223.203 167.692 228.643 178.333 233.432C169.295 262.267 156.465 278.432 145.999 278.432ZM269.696 230.296C262.979 237.074 237.893 234.511 203.068 221.035C206.229 206.833 208.414 191.6 209.576 176.112C215.154 171.908 220.502 167.689 225.614 163.472C254.108 189.256 269.734 211.811 271.015 224.652C271.406 228.574 270.164 229.826 269.696 230.296Z" fill="url(#paint0_linear_65_9)"/>
<path d="M145.999 139.216C143.239 139.216 140.542 140.324 138.598 142.268C136.654 144.213 135.546 146.91 135.546 149.669C135.546 152.429 136.654 155.105 138.598 157.07C140.542 159.015 143.239 160.123 145.999 160.123C148.759 160.123 151.435 159.015 153.4 157.07C155.344 155.105 156.452 152.429 156.452 149.669C156.452 146.91 155.344 144.213 153.4 142.268C151.435 140.324 148.759 139.216 145.999 139.216Z" fill="url(#paint1_linear_65_9)"/>
<defs>
<linearGradient id="paint0_linear_65_9" x1="220" y1="72.5" x2="92" y2="293" gradientUnits="userSpaceOnUse">
<stop stop-color="#0A7D86" stop-opacity="0.53"/>
<stop offset="1" stop-color="#0A7D86" stop-opacity="0"/>
</linearGradient>
<linearGradient id="paint1_linear_65_9" x1="151.297" y1="144.28" x2="142.469" y2="159.87" gradientUnits="userSpaceOnUse">
<stop stop-color="#0A7D86" stop-opacity="0.53"/>
<stop offset="1" stop-color="#0A7D86" stop-opacity="0"/>
</linearGradient>
</defs>
</svg>
