<?xml version="1.0" encoding="utf-8"?><!-- Uploaded to: SVG Repo, www.svgrepo.com, Generator: SVG Repo Mixer Tools -->
<svg width="800px" height="800px" viewBox="0 0 24 24" fill="none" xmlns="http://www.w3.org/2000/svg">
<path d="M12 9C11.4477 9 11 9.44771 11 10V15.2676C10.4022 15.6134 10 16.2597 10 17C10 18.1046 10.8954 19 12 19C13.1046 19 14 18.1046 14 17C14 16.2597 13.5978 15.6134 13 15.2676V10C13 9.44771 12.5523 9 12 9Z" fill="#0F0F0F"/>
<path d="M11 6C11 5.44772 11.4477 5 12 5C12.5523 5 13 5.44772 13 6C13 6.55228 12.5523 7 12 7C11.4477 7 11 6.55228 11 6Z" fill="#0F0F0F"/>
<path d="M16 7C15.4477 7 15 7.44772 15 8C15 8.55229 15.4477 9 16 9C16.5523 9 17 8.55229 17 8C17 7.44772 16.5523 7 16 7Z" fill="#0F0F0F"/>
<path d="M6 13C5.44772 13 5 12.5523 5 12C5 11.4477 5.44772 11 6 11C6.55228 11 7 11.4477 7 12C7 12.5523 6.55228 13 6 13Z" fill="#0F0F0F"/>
<path d="M7 8C7 8.55229 7.44772 9 8 9C8.55228 9 9 8.55228 9 8C9 7.44772 8.55228 7 8 7C7.44772 7 7 7.44772 7 8Z" fill="#0F0F0F"/>
<path d="M18 13C17.4477 13 17 12.5523 17 12C17 11.4477 17.4477 11 18 11C18.5523 11 19 11.4477 19 12C19 12.5523 18.5523 13 18 13Z" fill="#0F0F0F"/>
<path fill-rule="evenodd" clip-rule="evenodd" d="M12 23C18.0751 23 23 18.0751 23 12C23 5.92487 18.0751 1 12 1C5.92487 1 1 5.92487 1 12C1 18.0751 5.92487 23 12 23ZM12 20.9932C7.03321 20.9932 3.00683 16.9668 3.00683 12C3.00683 7.03321 7.03321 3.00683 12 3.00683C16.9668 3.00683 20.9932 7.03321 20.9932 12C20.9932 16.9668 16.9668 20.9932 12 20.9932Z" fill="#0F0F0F"/>
</svg>