<svg width="97" height="95" viewBox="0 0 97 95" fill="none" xmlns="http://www.w3.org/2000/svg">
<path d="M95.1369 42.489L69.7485 33.0914L60.2681 2.01989C59.9029 0.82165 58.7931 0 57.5407 0C56.2883 0 55.1785 0.82165 54.8133 2.01989L45.3358 33.0914L19.9445 42.489C18.8233 42.9055 18.0815 43.9697 18.0815 45.1651C18.0815 46.3576 18.8233 47.4274 19.9445 47.8411L45.3215 57.2359L54.8047 89.2545C55.1642 90.4642 56.2768 91.2944 57.5407 91.2944C58.8017 91.2944 59.9172 90.4642 60.2767 89.2517L69.7599 57.233L95.1397 47.8383C96.2552 47.4274 96.9999 46.3604 96.9999 45.1651C96.9999 43.9725 96.2552 42.9055 95.1369 42.489Z" fill="#FFAC33"/>
<path d="M38.0783 73.874L31.4766 71.4319L28.9089 62.0171C28.5723 60.7732 27.4454 59.9117 26.1587 59.9117C24.872 59.9117 23.7451 60.7732 23.4056 62.0143L20.8379 71.429L14.2391 73.8711C13.1179 74.2848 12.3761 75.3547 12.3761 76.5472C12.3761 77.7397 13.1179 78.8096 14.2391 79.2233L20.8037 81.6568L23.3913 91.9902C23.7109 93.2569 24.8492 94.147 26.1587 94.147C27.4682 94.147 28.6065 93.2569 28.9261 91.9874L31.5137 81.654L38.0783 79.2204C39.1995 78.8096 39.9413 77.7397 39.9413 76.5472C39.9413 75.3547 39.1995 74.2848 38.0783 73.874ZM25.7022 12.0705L18.9579 9.57419L16.4587 2.82697C16.045 1.70576 14.978 0.963989 13.7826 0.963989C12.5901 0.963989 11.5231 1.70576 11.1065 2.82697L8.61021 9.57419L1.86298 12.0705C0.741767 12.4871 0 13.5541 0 14.7466C0 15.9391 0.741767 17.009 1.86298 17.4227L8.61021 19.919L11.1065 26.6662C11.5231 27.7874 12.5901 28.5292 13.7826 28.5292C14.9751 28.5292 16.0421 27.7874 16.4587 26.6662L18.955 19.919L25.7022 17.4227C26.8234 17.0061 27.5652 15.9391 27.5652 14.7466C27.5652 13.5541 26.8234 12.4871 25.7022 12.0705Z" fill="#FFCC4D"/>
</svg>
