<svg width="150" height="151" viewBox="0 0 150 151" fill="none" xmlns="http://www.w3.org/2000/svg">
<path d="M111.229 39.619H38.7344V112.023H111.229V39.619Z" fill="#1E1E1E"/>
<path d="M38.7338 75.8208C58.7527 75.8208 74.9812 59.6127 74.9812 39.6189C74.9812 19.6252 58.7527 3.41705 38.7338 3.41705C18.7149 3.41705 2.48633 19.6252 2.48633 39.6189C2.48633 59.6127 18.7149 75.8208 38.7338 75.8208Z" fill="#595959"/>
<path d="M38.6537 75.7182C58.6726 75.7182 74.9012 59.5101 74.9012 39.5164C74.9012 19.5226 58.6726 3.31451 38.6537 3.31451C18.6348 3.31451 2.40625 19.5226 2.40625 39.5164C2.40625 59.5101 18.6348 75.7182 38.6537 75.7182Z" fill="#595959"/>
<path d="M38.9111 75.6177C58.8835 75.5634 75.0639 59.3852 75.0639 39.4218C75.0639 19.4605 58.8855 3.27629 38.9131 3.224L38.9111 75.6177Z" fill="white"/>
<path d="M74.8949 39.4219C74.8426 19.4726 58.64 3.31451 38.6535 3.31451C18.6671 3.31451 2.46447 19.4726 2.41211 39.4219H74.8949Z" fill="#1E1E1E"/>
<path d="M111.39 75.7243C131.409 75.7243 147.637 59.5162 147.637 39.5224C147.637 19.5287 131.409 3.32056 111.39 3.32056C91.3711 3.32056 75.1426 19.5287 75.1426 39.5224C75.1426 59.5162 91.3711 75.7243 111.39 75.7243Z" fill="#595959"/>
<path d="M75.1504 39.5224C75.2048 59.4696 91.4013 75.6277 111.39 75.6277C131.376 75.6277 147.581 59.4696 147.633 39.5224H75.1504Z" fill="white"/>
<path d="M111.39 75.7183C131.364 75.664 147.542 59.4837 147.542 39.5224C147.542 19.5611 131.364 3.37688 111.392 3.32458L111.39 75.7183Z" fill="#1E1E1E"/>
<path d="M111.39 148.124C131.409 148.124 147.637 131.916 147.637 111.922C147.637 91.9284 131.409 75.7203 111.39 75.7203C91.3711 75.7203 75.1426 91.9284 75.1426 111.922C75.1426 131.916 91.3711 148.124 111.39 148.124Z" fill="#595959"/>
<path d="M111.297 75.6318C91.325 75.6861 75.1445 91.8663 75.1445 111.828C75.1445 131.789 91.325 147.973 111.297 148.027V75.6318Z" fill="white"/>
<path d="M75.1465 111.922C75.2029 131.871 91.4035 148.027 111.392 148.027C131.374 148.027 147.579 131.871 147.633 111.922H75.1465Z" fill="#1E1E1E"/>
<path d="M38.8949 148.277C58.9138 148.277 75.1424 132.069 75.1424 112.075C75.1424 92.0812 58.9138 75.8731 38.8949 75.8731C18.876 75.8731 2.64746 92.0812 2.64746 112.075C2.64746 132.069 18.876 148.277 38.8949 148.277Z" fill="#595959"/>
<path d="M75.1382 111.88C75.0838 91.9306 58.8832 75.7725 38.8968 75.7725C18.9084 75.7725 2.70574 91.9306 2.65137 111.878L75.1382 111.88Z" fill="white"/>
<path d="M38.8003 75.7865C18.8259 75.8408 2.64746 92.021 2.64746 111.982C2.64746 131.944 18.8259 148.126 38.8003 148.18V75.7865Z" fill="#1E1E1E"/>
</svg>
